<svg width="670" height="704" viewBox="0 0 670 704" fill="none" xmlns="http://www.w3.org/2000/svg">
<circle cx="335" cy="352" r="327.5" stroke="#F2994A" stroke-width="15"/>
<path d="M356.455 189.107L351.296 423.607H315.652L310.493 189.107H356.455ZM335.35 518.814C327.221 518.814 320.342 516 314.714 510.372C309.086 504.744 306.272 497.865 306.272 489.736C306.272 481.607 309.086 474.728 314.714 469.1C320.342 463.472 327.221 460.658 335.35 460.658C343.167 460.658 349.733 463.472 355.048 469.1C360.676 474.728 363.49 481.607 363.49 489.736C363.49 497.865 360.676 504.744 355.048 510.372C349.733 516 343.167 518.814 335.35 518.814Z" fill="#F2994A"/>
</svg>
